<svg width="96" height="99" viewBox="0 0 96 99" fill="none" xmlns="http://www.w3.org/2000/svg">
<path d="M33.9571 13.1615H39.9777L42.2481 8.76282C42.2481 8.76282 43.4981 7.19186 48.4472 8.0297C48.7278 2.96771 52.4524 0.0701591 52.631 0.000338569C52.8095 -0.069482 53.6004 10.6829 53.6004 10.6829C53.6004 10.6829 55.9218 23.3204 56.8657 24.3328C56.8657 24.3328 62.0699 34.2822 65.82 37.4591C69.5701 40.6359 80.3101 57.8816 76.8916 66.295C76.9937 67.6216 84.3918 67.7263 86.7388 67.1328C87.1725 67.0281 87.5806 66.7139 87.8612 66.26C88.8817 64.5494 90.7439 59.9064 91.5093 55.6822C92.4277 50.6202 95.2083 64.9335 92.4277 69.3671C91.8409 70.0304 88.6776 76.1048 80.3866 74.6385C79.5192 74.4291 76.3049 71.9504 76.3049 71.9504L75.4885 74.3243L54.2636 74.3941C54.2636 74.3941 51.5595 74.2545 54.9779 70.9729C55.7433 69.4718 59.927 70.3795 59.927 70.3795C59.927 70.3795 57.529 59.4525 55.9218 58.4052C55.0545 57.9514 53.8045 62.8738 53.9575 68.215C54.4932 69.9955 50.5391 73.6261 50.5391 73.6261H45.1053C45.1053 73.6261 44.0083 72.4392 45.9216 71.1824C47.835 69.9256 49.4932 69.9955 50.2585 62.3501C51.0238 54.7047 45.8961 50.5504 44.7737 49.1889C44.7737 49.1889 38.9317 41.4388 39.8246 36.9354C40.7175 32.432 42.7583 30.6865 43.243 30.1279C43.7277 29.5693 44.1359 21.5051 36.5337 21.5051C35.8449 22.0636 34.901 19.2708 34.901 19.2708L34.3398 18.5377L34.2122 16.6875C34.2122 16.6875 32.1459 13.4059 33.9571 13.0568V13.1615Z" fill="white"/>
<path d="M17.2479 44.0222C17.2479 44.0222 15.3601 36.3419 17.554 33.4094C17.554 31.6988 18.6255 28.0682 18.6255 28.0682C18.6255 28.0682 18.9571 28.7315 19.2632 29.4646C19.7479 30.6864 20.4622 31.7338 21.3041 32.5018C22.0439 33.1651 22.8092 33.968 22.9878 34.3171C23.3194 34.9804 24.5439 34.4568 24.748 35.0502C24.9521 35.6437 25.3093 37.9129 24.748 38.5762C24.1868 39.2395 23.7021 39.6933 23.2429 39.9028C22.7837 40.1122 23.9572 41.4039 24.7225 41.0199C25.4878 40.6359 31.8145 28.4871 32.1971 25.9736C32.5798 23.46 34.4676 26.0783 33.9064 27.6143C33.4217 29.0107 27.8603 45.3488 25.2327 49.6078C24.799 50.306 24.4164 51.0391 24.1613 51.9119C23.8551 52.8545 23.498 54.2858 23.2939 56.3455C22.9113 60.1856 23.2174 70.4842 23.2174 70.4842C23.2174 70.4842 25.4368 70.9729 25.5389 72.474C25.6664 74.0101 25.3858 74.6734 25.3858 74.6734H21.9418C21.7378 74.6734 21.151 71.6013 21.2275 70.3445C21.3041 69.0179 20.8194 64.5843 20.9469 64.0956C21.0745 63.6068 18.0132 69.6812 18.2938 70.938C18.5744 72.1948 19.9775 71.7758 20.4112 71.6362C20.8449 71.4966 21.3296 74.2894 20.9469 74.5687C20.6663 74.7781 11.8651 74.8479 7.68136 74.8829C5.89561 74.8829 4.10987 73.9403 2.98739 72.0551C2.55371 71.3569 2.22207 70.554 2.17105 69.7161C1.94146 66.9582 2.50269 59.8016 5.84459 57.7768C9.18649 55.752 8.59975 59.8365 8.31913 59.5921L6.0997 61.8613C5.46193 62.4897 5.05376 63.4672 4.92621 64.5145C4.69661 66.3298 4.51804 69.0179 5.35989 69.6463C6.63542 70.5889 9.41609 70.1351 9.41609 70.1351C9.41609 70.1351 8.90588 57.8815 10.6406 54.9491C10.6406 54.9491 13.2172 48.7001 15.0795 47.5132C16.0744 46.8848 16.9673 46.6055 16.9673 46.6055L17.2224 44.0571L17.2479 44.0222Z" fill="white"/>
<path d="M10.9569 84.3288C10.9569 85.8512 10.4699 87.1609 9.49595 88.2579C8.481 89.3959 7.22 89.9649 5.71296 89.9649C4.20078 89.9649 2.93979 89.3984 1.92996 88.2656C0.956023 87.1738 0.469052 85.8615 0.469052 84.3288C0.469052 82.8115 0.961149 81.5018 1.94534 80.3997C2.96029 79.2566 4.21616 78.6851 5.71296 78.6851C7.21487 78.6851 8.47331 79.2566 9.48826 80.3997C10.4673 81.4967 10.9569 82.8064 10.9569 84.3288ZM9.10381 84.3058C9.10381 83.3011 8.79112 82.4271 8.16575 81.6838C7.50962 80.8944 6.6869 80.4997 5.69758 80.4997C4.71851 80.4997 3.90348 80.8995 3.25247 81.6992C2.63735 82.4476 2.32979 83.3241 2.32979 84.3288C2.32979 85.3284 2.63735 86.2024 3.25247 86.9508C3.90348 87.7504 4.71851 88.1503 5.69758 88.1503C6.69202 88.1503 7.51731 87.7504 8.17344 86.9508C8.79368 86.2024 9.10381 85.3207 9.10381 84.3058ZM21.8983 79.108C21.8983 79.6975 21.8778 80.5868 21.8368 81.7761C21.7958 82.9653 21.7753 83.8572 21.7753 84.4518C21.7753 85.0106 21.7804 85.8487 21.7907 86.9661C21.8009 88.0785 21.806 88.914 21.806 89.4728C21.806 89.6419 21.742 89.7265 21.6138 89.7265C21.5369 89.7265 21.4216 89.7188 21.2678 89.7034C21.114 89.6881 20.9987 89.6804 20.9218 89.6804C20.8398 89.6804 20.7142 89.6881 20.545 89.7034C20.3759 89.7188 20.2503 89.7265 20.1683 89.7265C20.076 89.7265 19.9658 89.6419 19.8377 89.4728C18.7304 87.9811 17.0517 85.7564 14.8014 82.7987C14.4528 82.3476 14.2503 82.0964 14.1939 82.0452C14.1427 82.0452 14.117 82.1503 14.117 82.3604C14.117 83.1498 14.1299 84.3365 14.1555 85.9204C14.1811 87.4993 14.1939 88.6834 14.1939 89.4728C14.1939 89.6419 14.1427 89.7265 14.0401 89.7265C13.953 89.7265 13.8197 89.7188 13.6403 89.7034C13.4609 89.6881 13.3276 89.6804 13.2405 89.6804C13.1482 89.6804 13.0098 89.6881 12.8253 89.7034C12.6459 89.7188 12.51 89.7265 12.4178 89.7265C12.2896 89.7265 12.2255 89.6752 12.2255 89.5727C12.2255 89.0089 12.2512 88.1605 12.3024 87.0277C12.3588 85.8897 12.387 85.0362 12.387 84.4672C12.387 83.847 12.3639 82.7295 12.3178 81.1148C12.3076 80.6945 12.2819 80.064 12.2409 79.2233L12.2332 79.1234C12.2281 79.0465 12.2896 79.0055 12.4178 79.0003C12.751 78.9952 13.0124 78.985 13.202 78.9696C13.2738 78.9645 13.4097 78.944 13.6096 78.9081C13.7787 78.8773 13.912 78.8619 14.0094 78.8619C14.0555 78.8619 14.135 78.9363 14.2478 79.0849C15.4267 80.7047 17.2311 83.114 19.6608 86.3126C19.7685 86.4459 19.8684 86.5612 19.9607 86.6586C19.9966 86.4433 20.0145 85.9512 20.0145 85.1823C20.0145 84.5159 19.9889 83.5163 19.9376 82.1836C19.8915 80.8508 19.8684 79.8538 19.8684 79.1926C19.8684 79.0234 19.9197 78.9388 20.0222 78.9388C20.1145 78.9388 20.2529 78.9465 20.4374 78.9619C20.6271 78.9773 20.768 78.985 20.8603 78.985C20.9577 78.985 21.1038 78.9773 21.2986 78.9619C21.4934 78.9465 21.6395 78.9388 21.7368 78.9388C21.8445 78.9388 21.8983 78.9952 21.8983 79.108ZM32.9397 89.3497C32.95 89.4625 32.8859 89.5189 32.7475 89.5189C32.6706 89.5189 32.4835 89.4471 32.1862 89.3036C31.894 89.155 31.7069 89.0499 31.6249 88.9884C30.6817 89.6291 29.5643 89.9495 28.2725 89.9495C26.7655 89.9495 25.525 89.3856 24.551 88.2579C23.6283 87.1917 23.167 85.8922 23.167 84.3596C23.167 82.791 23.6207 81.4736 24.528 80.4074C25.4865 79.2797 26.7347 78.7158 28.2725 78.7158C29.0619 78.7158 29.8206 78.9029 30.5484 79.2771C31.2815 79.6462 31.8658 80.1537 32.3015 80.7996C32.3682 80.897 32.4015 80.9713 32.4015 81.0225C32.4015 81.0943 32.217 81.3327 31.8479 81.7376C31.4839 82.1375 31.2738 82.3374 31.2174 82.3374C31.1764 82.3374 31.02 82.181 30.7484 81.8683C30.4203 81.489 30.1076 81.1994 29.8103 80.9995C29.3438 80.6868 28.8569 80.5304 28.3494 80.5304C27.3806 80.5304 26.586 80.9354 25.9658 81.7453C25.4019 82.4835 25.12 83.3549 25.12 84.3596C25.12 85.3386 25.4096 86.2049 25.9889 86.9585C26.6194 87.7735 27.4113 88.181 28.3648 88.181C29.3028 88.181 30.164 87.9247 30.9483 87.4121C30.938 87.2737 30.8945 86.7867 30.8176 85.9512C30.7561 85.3566 30.7253 84.8722 30.7253 84.498C30.7253 84.4108 30.7817 84.3673 30.8945 84.3673C30.9918 84.3673 31.1379 84.375 31.3327 84.3903C31.5275 84.4006 31.6736 84.4057 31.771 84.4057C31.8684 84.4057 32.017 84.4006 32.217 84.3903C32.4169 84.3801 32.5655 84.375 32.6629 84.375C32.7706 84.375 32.8244 84.457 32.8244 84.621C32.8244 84.8004 32.8167 85.0721 32.8013 85.436C32.7911 85.7949 32.7859 86.064 32.7859 86.2434C32.7859 86.9815 32.8346 87.9811 32.932 89.2421L32.9397 89.3497ZM46.803 82.9217C46.803 84.1263 46.4775 85.09 45.8265 85.8128C45.155 86.5561 44.2246 86.9277 43.0354 86.9277C42.7432 86.9277 42.2998 86.9175 41.7052 86.8969C41.1157 86.8713 40.6723 86.8585 40.375 86.8585C40.211 86.8585 40.1289 86.9636 40.1289 87.1738C40.1289 87.4454 40.1443 87.8529 40.1751 88.3963C40.211 88.9397 40.2289 89.3472 40.2289 89.6189C40.2289 89.706 40.1802 89.7496 40.0828 89.7496C39.9752 89.7496 39.8111 89.7393 39.5907 89.7188C39.3754 89.6932 39.214 89.6804 39.1063 89.6804C39.014 89.6804 38.8782 89.6881 38.6988 89.7034C38.5194 89.7188 38.3861 89.7265 38.299 89.7265C38.1708 89.7265 38.1067 89.647 38.1067 89.4881C38.1067 88.9294 38.1298 88.0862 38.1759 86.9585C38.2272 85.8307 38.2528 84.9849 38.2528 84.4211C38.2528 82.8218 38.1939 81.1046 38.076 79.2695L38.0683 79.1541C38.0632 79.0413 38.1298 78.985 38.2682 78.985C38.545 78.985 38.9602 78.9875 39.5138 78.9926C40.0726 78.9978 40.4929 79.0003 40.7748 79.0003C41.0157 79.0003 41.3771 78.9901 41.859 78.9696C42.3408 78.9491 42.7022 78.9388 42.9431 78.9388C44.076 78.9388 45.0063 79.3233 45.7342 80.0922C46.4468 80.8457 46.803 81.7889 46.803 82.9217ZM44.8654 83.0371C44.8654 82.2682 44.6578 81.653 44.2426 81.1917C43.812 80.7099 43.2174 80.4689 42.4587 80.4689C42.2229 80.4689 41.8026 80.4894 41.1977 80.5304C40.5057 80.5715 40.1495 80.6125 40.1289 80.6535C40.0931 80.715 40.0751 81.5967 40.0751 83.2985C40.0751 83.5138 40.0803 83.8367 40.0905 84.2673C40.1059 84.6979 40.1136 85.0208 40.1136 85.2361C40.1136 85.2823 40.17 85.3181 40.2827 85.3438C40.5647 85.4002 41.3464 85.4283 42.6279 85.4283C43.3455 85.4283 43.9043 85.2054 44.3041 84.7594C44.6783 84.3339 44.8654 83.7598 44.8654 83.0371ZM55.3763 82.768C55.3763 82.7885 55.3686 82.8346 55.3532 82.9064C55.1533 84.0802 55.0533 85.0926 55.0533 85.9435C55.0533 85.9948 55.1174 87.1456 55.2455 89.3959L55.2532 89.5035C55.2584 89.6522 55.1892 89.7265 55.0456 89.7265C54.9072 89.7265 54.6945 89.7419 54.4074 89.7726C54.1255 89.8085 53.9153 89.8265 53.7769 89.8265C53.6795 89.8265 53.6052 89.647 53.554 89.2882C53.5027 88.9294 53.454 88.75 53.4079 88.75C53.3771 88.75 53.2387 88.85 52.9927 89.0499C52.6902 89.2959 52.4083 89.483 52.1469 89.6112C51.7419 89.8162 51.337 89.9187 50.932 89.9187C49.9376 89.9187 49.0995 89.5215 48.4177 88.7269C47.7718 87.9683 47.4489 87.084 47.4489 86.0742C47.4489 84.9363 47.7744 83.9956 48.4254 83.2524C49.1071 82.4783 50.0042 82.0913 51.1165 82.0913C51.9008 82.0913 52.5851 82.363 53.1695 82.9064C53.2567 83.0089 53.3925 83.1575 53.577 83.3523C53.5924 83.3677 53.6078 83.3754 53.6232 83.3754C53.6539 83.3754 53.6975 83.2139 53.7539 82.891C53.8103 82.568 53.882 82.4066 53.9692 82.4066C54.1076 82.4066 54.3664 82.445 54.7458 82.5219C55.1661 82.6142 55.3763 82.6962 55.3763 82.768ZM53.4156 85.982C53.4156 85.3515 53.2285 84.8107 52.8543 84.3596C52.4596 83.8726 51.9546 83.6291 51.3395 83.6291C50.7244 83.6291 50.2118 83.87 49.8017 84.3519C49.407 84.8132 49.2097 85.3566 49.2097 85.982C49.2097 86.6022 49.407 87.1404 49.8017 87.5966C50.2118 88.0734 50.7244 88.3117 51.3395 88.3117C51.9393 88.3117 52.4416 88.0682 52.8466 87.5813C53.2259 87.1251 53.4156 86.5919 53.4156 85.982ZM60.92 88.3117C60.92 88.4245 60.9098 88.5783 60.8893 88.7731C60.8636 89.014 60.8483 89.1703 60.8431 89.2421C60.838 89.3344 60.8303 89.3907 60.8201 89.4113C60.7996 89.4471 60.7509 89.483 60.674 89.5189C60.2536 89.7188 59.5924 89.8188 58.6902 89.8188C57.4907 89.8188 56.891 89.2754 56.891 88.1887C56.891 87.753 56.9012 87.0994 56.9217 86.228C56.9422 85.3515 56.9525 84.6953 56.9525 84.2596C56.9525 84.0495 56.8474 83.9367 56.6372 83.9213C56.4476 83.9213 56.2605 83.9187 56.076 83.9136C55.9683 83.888 55.9145 83.6778 55.9145 83.2831C55.9145 83.1345 55.9247 82.9781 55.9452 82.8141C55.9606 82.6911 56.0426 82.6167 56.1913 82.5911C56.3194 82.5911 56.445 82.5885 56.568 82.5834C56.8038 82.5732 56.9217 82.4681 56.9217 82.2682C56.9217 82.0631 56.9141 81.7504 56.8987 81.3301C56.8884 80.9098 56.8833 80.5945 56.8833 80.3844C56.8833 80.0102 56.9551 79.8231 57.0986 79.8231C57.1447 79.8231 57.6266 79.9025 58.5441 80.0614C58.662 80.0768 58.721 80.1332 58.721 80.2306C58.721 80.4561 58.703 80.7944 58.6671 81.2455C58.6364 81.6966 58.621 82.0349 58.621 82.2605C58.621 82.4091 58.6902 82.4835 58.8286 82.4835H60.674C60.7611 82.4835 60.8047 82.5142 60.8047 82.5757C60.8047 82.6372 60.7944 82.7372 60.7739 82.8756C60.7586 83.0089 60.7509 83.1088 60.7509 83.1755C60.7509 83.2524 60.7534 83.3703 60.7586 83.5292C60.7637 83.6881 60.7662 83.806 60.7662 83.8829C60.7662 83.9803 60.6945 84.0289 60.551 84.0289C60.3459 84.0289 60.0358 84.0161 59.6206 83.9905C59.2054 83.9597 58.8953 83.9444 58.6902 83.9444C58.6492 83.9444 58.6184 84.0905 58.5979 84.3826C58.5723 84.7466 58.5595 85.2566 58.5595 85.9128V87.0584C58.5595 87.4993 58.6005 87.8068 58.6825 87.9811C58.8055 88.2476 59.0593 88.3809 59.4437 88.3809C59.6026 88.3809 59.8359 88.3476 60.1434 88.281C60.451 88.2092 60.6791 88.1733 60.8278 88.1733C60.8893 88.1733 60.92 88.2195 60.92 88.3117ZM64.0187 80.5304C64.0187 81.1609 63.6676 81.4762 62.9653 81.4762C62.2528 81.4762 61.8965 81.1609 61.8965 80.5304C61.8965 80.2485 62.0067 80.0153 62.2272 79.8307C62.4322 79.6565 62.6782 79.5693 62.9653 79.5693C63.2524 79.5693 63.4984 79.659 63.7034 79.8384C63.9136 80.0178 64.0187 80.2485 64.0187 80.5304ZM63.9649 82.6142C63.9649 83.0089 63.9392 83.6061 63.888 84.4057C63.8418 85.2002 63.8188 85.7974 63.8188 86.1972C63.8188 86.5714 63.8265 87.1327 63.8418 87.8811C63.8572 88.6244 63.8649 89.1806 63.8649 89.5497C63.8649 89.6573 63.8188 89.7111 63.7265 89.7111H62.2272C62.1195 89.7111 62.0657 89.606 62.0657 89.3959C62.0657 89.0422 62.0734 88.5116 62.0888 87.8042C62.1093 87.0917 62.1195 86.5561 62.1195 86.1972C62.1195 85.7974 62.0888 85.1977 62.0272 84.398C61.9709 83.5984 61.9427 82.9986 61.9427 82.5988C61.9427 82.5116 61.9965 82.4681 62.1041 82.4681C62.1964 82.4681 62.3374 82.4809 62.527 82.5065C62.7218 82.5322 62.8679 82.545 62.9653 82.545C63.0627 82.545 63.2062 82.5322 63.3959 82.5065C63.5907 82.4809 63.7368 82.4681 63.8342 82.4681C63.9213 82.4681 63.9649 82.5168 63.9649 82.6142ZM72.269 89.5727C72.269 89.6855 72.2177 89.7419 72.1152 89.7419C71.9461 89.7419 71.6923 89.7393 71.354 89.7342C71.0208 89.7291 70.7696 89.7265 70.6005 89.7265C70.5082 89.7265 70.4621 89.6522 70.4621 89.5035C70.4621 89.2523 70.4698 88.8705 70.4852 88.3579C70.5005 87.8453 70.5082 87.4608 70.5082 87.2045C70.5082 86.9995 70.5057 86.6945 70.5005 86.2895C70.4954 85.8794 70.4928 85.5719 70.4928 85.3668C70.4928 84.7825 70.4083 84.3698 70.2391 84.1289C70.0341 83.8418 69.6547 83.6983 69.1011 83.6983C68.8448 83.6983 68.4886 83.8418 68.0324 84.1289C67.5505 84.4313 67.3096 84.7005 67.3096 84.9363V89.5497C67.3096 89.6778 67.2609 89.7419 67.1635 89.7419C66.9995 89.7419 66.7534 89.7393 66.4254 89.7342C66.0973 89.7291 65.8512 89.7265 65.6872 89.7265C65.5796 89.7265 65.5257 89.6676 65.5257 89.5497C65.5257 89.1447 65.5309 88.5373 65.5411 87.7274C65.5565 86.9175 65.5642 86.3075 65.5642 85.8974C65.5642 84.8055 65.4489 83.7983 65.2182 82.8756C65.2028 82.8295 65.1951 82.7961 65.1951 82.7756C65.1951 82.7244 65.2284 82.6885 65.2951 82.668C65.331 82.6629 65.6231 82.6167 66.1716 82.5296C66.7252 82.4373 67.0148 82.3912 67.0405 82.3912C67.0712 82.3912 67.0917 82.4322 67.102 82.5142C67.1276 82.832 67.1866 83.1524 67.2788 83.4753C67.5454 83.2652 67.8965 83.0037 68.3322 82.6911C68.8705 82.363 69.3908 82.199 69.8931 82.199C70.8568 82.199 71.5155 82.4783 71.8692 83.0371C72.1306 83.4471 72.2613 84.111 72.2613 85.0285C72.2613 85.1874 72.2562 85.4309 72.2459 85.759C72.2408 86.087 72.2382 86.3331 72.2382 86.4971C72.2382 86.8406 72.2434 87.3532 72.2536 88.0349C72.2639 88.7167 72.269 89.2293 72.269 89.5727ZM80.4501 89.4574C80.4501 89.647 80.3963 89.7419 80.2886 89.7419C80.1297 89.7419 79.8888 89.7393 79.5659 89.7342C79.2429 89.7291 79.002 89.7265 78.8431 89.7265C78.715 89.7265 78.6509 89.6419 78.6509 89.4728C78.6509 89.2267 78.6586 88.8551 78.6739 88.3579C78.6944 87.8606 78.7047 87.4864 78.7047 87.2353C78.7047 86.9995 78.6944 86.6432 78.6739 86.1665C78.6586 85.6846 78.6509 85.3233 78.6509 85.0823C78.6509 84.1597 78.2152 83.6983 77.3437 83.6983C77.0618 83.6983 76.6927 83.8393 76.2365 84.1212C75.7496 84.4236 75.5061 84.7005 75.5061 84.9516V89.5189C75.5061 89.6676 75.4523 89.7419 75.3446 89.7419C75.1857 89.7419 74.9473 89.7393 74.6295 89.7342C74.3117 89.7291 74.0734 89.7265 73.9144 89.7265C73.7966 89.7265 73.7376 89.6573 73.7376 89.5189V85.8051C73.7376 85.2002 73.7043 83.9136 73.6376 81.9452C73.6274 81.3352 73.5838 80.4331 73.5069 79.2387C73.4967 79.1772 73.4916 79.1362 73.4916 79.1157C73.4916 79.0285 73.5223 78.9747 73.5838 78.9542C73.671 78.9234 73.9606 78.9081 74.4527 78.9081C74.5603 78.9081 74.7218 78.8901 74.9371 78.8542C75.1524 78.8132 75.3087 78.7927 75.4061 78.7927C75.4728 78.7927 75.5061 78.8414 75.5061 78.9388C75.5061 79.4207 75.4856 80.146 75.4446 81.1148C75.4087 82.0785 75.3907 82.8013 75.3907 83.2831C75.3907 83.401 75.4112 83.4625 75.4523 83.4676C75.7137 83.2472 76.052 82.9807 76.4672 82.668C76.9695 82.3553 77.5001 82.199 78.0588 82.199C79.0225 82.199 79.6863 82.486 80.0503 83.0601C80.3117 83.4805 80.4424 84.1468 80.4424 85.0593C80.4424 85.2182 80.4373 85.4642 80.427 85.7974C80.4219 86.1255 80.4193 86.369 80.4193 86.5279C80.4193 86.8559 80.4245 87.3455 80.4347 87.9965C80.445 88.6475 80.4501 89.1344 80.4501 89.4574ZM89.4078 82.768C89.4078 82.7885 89.4001 82.8346 89.3847 82.9064C89.1848 84.0802 89.0849 85.0926 89.0849 85.9435C89.0849 85.9948 89.1489 87.1456 89.2771 89.3959L89.2848 89.5035C89.2899 89.6522 89.2207 89.7265 89.0772 89.7265C88.9388 89.7265 88.726 89.7419 88.439 89.7726C88.1571 89.8085 87.9469 89.8265 87.8085 89.8265C87.7111 89.8265 87.6368 89.647 87.5855 89.2882C87.5342 88.9294 87.4855 88.75 87.4394 88.75C87.4087 88.75 87.2703 88.85 87.0242 89.0499C86.7218 89.2959 86.4398 89.483 86.1784 89.6112C85.7735 89.8162 85.3685 89.9187 84.9636 89.9187C83.9691 89.9187 83.131 89.5215 82.4492 88.7269C81.8034 87.9683 81.4804 87.084 81.4804 86.0742C81.4804 84.9363 81.8059 83.9956 82.4569 83.2524C83.1387 82.4783 84.0357 82.0913 85.1481 82.0913C85.9324 82.0913 86.6167 82.363 87.2011 82.9064C87.2882 83.0089 87.424 83.1575 87.6086 83.3523C87.6239 83.3677 87.6393 83.3754 87.6547 83.3754C87.6855 83.3754 87.729 83.2139 87.7854 82.891C87.8418 82.568 87.9136 82.4066 88.0007 82.4066C88.1391 82.4066 88.398 82.445 88.7773 82.5219C89.1976 82.6142 89.4078 82.6962 89.4078 82.768ZM87.4471 85.982C87.4471 85.3515 87.26 84.8107 86.8858 84.3596C86.4911 83.8726 85.9862 83.6291 85.3711 83.6291C84.7559 83.6291 84.2433 83.87 83.8333 84.3519C83.4386 84.8132 83.2412 85.3566 83.2412 85.982C83.2412 86.6022 83.4386 87.1404 83.8333 87.5966C84.2433 88.0734 84.7559 88.3117 85.3711 88.3117C85.9708 88.3117 86.4732 88.0682 86.8781 87.5813C87.2574 87.1251 87.4471 86.5919 87.4471 85.982ZM94.2672 87.3583C94.2672 88.1221 93.9623 88.7346 93.3523 89.196C92.7986 89.6163 92.1246 89.8265 91.33 89.8265C91.0225 89.8265 90.8482 89.8188 90.8072 89.8034C90.7201 89.7624 90.6765 89.6368 90.6765 89.4266C90.6765 89.3139 90.6611 89.1447 90.6303 88.9192C90.6047 88.6936 90.5919 88.527 90.5919 88.4194C90.5919 88.3527 90.638 88.3092 90.7303 88.2887C90.7969 88.2733 90.8918 88.2733 91.0148 88.2887C91.1737 88.304 91.2506 88.3117 91.2455 88.3117C92.2143 88.3117 92.6987 88.0144 92.6987 87.4198C92.6987 87.1379 92.486 86.879 92.0605 86.6432C91.3685 86.2639 90.9712 86.0307 90.8687 85.9435C90.4432 85.5796 90.2305 85.1028 90.2305 84.5134C90.2305 83.7445 90.5201 83.1447 91.0994 82.7141C91.6222 82.3297 92.2835 82.1375 93.0831 82.1375C93.1549 82.1375 93.2062 82.1708 93.2369 82.2374C93.2728 82.304 93.3369 82.5116 93.4291 82.8602C93.5265 83.2088 93.5752 83.419 93.5752 83.4907C93.5752 83.5471 93.5265 83.583 93.4291 83.5984C93.1011 83.6445 92.7705 83.6881 92.4373 83.7291C92.0426 83.8367 91.8452 84.052 91.8452 84.375C91.8452 84.6056 92.0528 84.8389 92.468 85.0747C93.0831 85.4181 93.4727 85.6667 93.6367 85.8205C94.0571 86.2203 94.2672 86.7329 94.2672 87.3583Z" fill="white"/>
</svg>
